<?xml version="1.0" encoding="UTF-8" standalone="no"?>
<!-- Created with Inkscape (http://www.inkscape.org/) -->

<svg
   width="282.53415mm"
   height="117.16405mm"
   viewBox="0 0 1067.8456 442.82479"
   version="1.1"
   id="svg1"
   xmlns:inkscape="http://www.inkscape.org/namespaces/inkscape"
   xmlns:sodipodi="http://sodipodi.sourceforge.net/DTD/sodipodi-0.dtd"
   xmlns="http://www.w3.org/2000/svg"
   xmlns:svg="http://www.w3.org/2000/svg">
  <sodipodi:namedview
     id="namedview1"
     pagecolor="#ffffff"
     bordercolor="#000000"
     borderopacity="0.25"
     inkscape:showpageshadow="2"
     inkscape:pageopacity="0.0"
     inkscape:pagecheckerboard="0"
     inkscape:deskcolor="#d1d1d1"
     inkscape:document-units="mm" />
  <defs
     id="defs1">
    <clipPath
       clipPathUnits="userSpaceOnUse"
       id="clipPath91-9">
      <path
         d="M 0,1080 H 1920 V 0 H 0 Z"
         transform="translate(-892.08775,-619.84502)"
         id="path91-6" />
    </clipPath>
    <clipPath
       clipPathUnits="userSpaceOnUse"
       id="clipPath93-5">
      <path
         d="M 0,1080 H 1920 V 0 H 0 Z"
         transform="translate(-959.35285,-598.68041)"
         id="path93-0" />
    </clipPath>
    <clipPath
       clipPathUnits="userSpaceOnUse"
       id="clipPath95-3">
      <path
         d="M 0,1080 H 1920 V 0 H 0 Z"
         transform="translate(-1035.1251,-586.85341)"
         id="path95-6" />
    </clipPath>
    <clipPath
       clipPathUnits="userSpaceOnUse"
       id="clipPath98-7">
      <path
         d="M 0,1080 H 1920 V 0 H 0 Z"
         transform="matrix(1.3333333,0,0,-1.3333333,5160,1440)"
         id="path98-4" />
    </clipPath>
    <clipPath
       clipPathUnits="userSpaceOnUse"
       id="clipPath96-3">
      <path
         d="m 1091.58,644.103 h 66.45 v -71.902 h -66.45 z"
         transform="translate(-1110.3094,-586.85341)"
         id="path96-3" />
    </clipPath>
    <clipPath
       clipPathUnits="userSpaceOnUse"
       id="clipPath100-5">
      <path
         d="M 0,1080 H 1920 V 0 H 0 Z"
         transform="translate(-932.0365,-484.83691)"
         id="path100-8" />
    </clipPath>
    <clipPath
       clipPathUnits="userSpaceOnUse"
       id="clipPath102-4">
      <path
         d="M 0,1080 H 1920 V 0 H 0 Z"
         transform="translate(-1007.3107,-484.83691)"
         id="path102-6" />
    </clipPath>
    <clipPath
       clipPathUnits="userSpaceOnUse"
       id="clipPath104-9">
      <path
         d="M 0,1080 H 1920 V 0 H 0 Z"
         transform="translate(-1094.7258,-524.08421)"
         id="path104-9" />
    </clipPath>
    <clipPath
       clipPathUnits="userSpaceOnUse"
       id="clipPath106-2">
      <path
         d="M 0,1080 H 1920 V 0 H 0 Z"
         transform="translate(-1152.6244,-484.83691)"
         id="path106-7" />
    </clipPath>
    <clipPath
       clipPathUnits="userSpaceOnUse"
       id="clipPath108-2">
      <path
         d="M 0,1080 H 1920 V 0 H 0 Z"
         transform="translate(-928.8331,-443.76101)"
         id="path108-2" />
    </clipPath>
    <clipPath
       clipPathUnits="userSpaceOnUse"
       id="clipPath110-8">
      <path
         d="M 0,1080 H 1920 V 0 H 0 Z"
         transform="translate(-949.30172,-443.47001)"
         id="path110-0" />
    </clipPath>
    <clipPath
       clipPathUnits="userSpaceOnUse"
       id="clipPath112-9">
      <path
         d="M 0,1080 H 1920 V 0 H 0 Z"
         transform="translate(-971.65532,-442.65341)"
         id="path112-3" />
    </clipPath>
    <clipPath
       clipPathUnits="userSpaceOnUse"
       id="clipPath114-4">
      <path
         d="M 0,1080 H 1920 V 0 H 0 Z"
         transform="translate(-990.3739,-443.10041)"
         id="path114-3" />
    </clipPath>
    <clipPath
       clipPathUnits="userSpaceOnUse"
       id="clipPath116-6">
      <path
         d="M 0,1080 H 1920 V 0 H 0 Z"
         transform="translate(-1019.7618,-445.27741)"
         id="path116-8" />
    </clipPath>
    <clipPath
       clipPathUnits="userSpaceOnUse"
       id="clipPath118-0">
      <path
         d="M 0,1080 H 1920 V 0 H 0 Z"
         transform="translate(-1043.7688,-446.59851)"
         id="path118-5" />
    </clipPath>
    <clipPath
       clipPathUnits="userSpaceOnUse"
       id="clipPath120-9">
      <path
         d="M 0,1080 H 1920 V 0 H 0 Z"
         transform="translate(-1065.3834,-446.59851)"
         id="path120-8" />
    </clipPath>
    <clipPath
       clipPathUnits="userSpaceOnUse"
       id="clipPath122-4">
      <path
         d="M 0,1080 H 1920 V 0 H 0 Z"
         transform="translate(-1085.3043,-435.51931)"
         id="path122-7" />
    </clipPath>
    <clipPath
       clipPathUnits="userSpaceOnUse"
       id="clipPath124-6">
      <path
         d="M 0,1080 H 1920 V 0 H 0 Z"
         transform="translate(-1118.2324,-446.46261)"
         id="path124-6" />
    </clipPath>
    <clipPath
       clipPathUnits="userSpaceOnUse"
       id="clipPath126-2">
      <path
         d="M 0,1080 H 1920 V 0 H 0 Z"
         transform="translate(-1128.67,-443.47001)"
         id="path126-3" />
    </clipPath>
    <clipPath
       clipPathUnits="userSpaceOnUse"
       id="clipPath128-8">
      <path
         d="M 0,1080 H 1920 V 0 H 0 Z"
         transform="translate(-1148.748,-462.73231)"
         id="path128-3" />
    </clipPath>
    <clipPath
       clipPathUnits="userSpaceOnUse"
       id="clipPath130-1">
      <path
         d="M 0,1080 H 1920 V 0 H 0 Z"
         transform="translate(-1185.6033,-452.62491)"
         id="path130-5" />
    </clipPath>
    <clipPath
       clipPathUnits="userSpaceOnUse"
       id="clipPath132-4">
      <path
         d="M 0,1080 H 1920 V 0 H 0 Z"
         transform="translate(-1208.0154,-446.59851)"
         id="path132-9" />
    </clipPath>
  </defs>
  <g
     inkscape:label="Layer 1"
     inkscape:groupmode="layer"
     id="layer1"
     transform="translate(-24.439754,-144.92511)">
    <g
       id="g185"
       transform="matrix(1.5846585,0,0,1.5846585,-10385.227,-295.10485)">
      <path
         id="path90"
         d="m 0,0 v -153.292 c 0,-4.828 -3.753,-8.756 -8.366,-8.756 h -152.386 c -4.612,0 -8.365,3.928 -8.365,8.756 V 0 c 0,4.828 3.753,8.756 8.365,8.756 H -8.366 C -3.753,8.756 0,4.828 0,0 m -8.366,24.947 h -152.386 c -13.253,0 -24.035,-11.191 -24.035,-24.947 v -153.292 c 0,-13.756 10.782,-24.947 24.035,-24.947 H -8.366 c 13.253,0 24.036,11.191 24.036,24.947 L 15.67,0 c 0,13.756 -10.783,24.947 -24.036,24.947"
         style="fill:#c1272d;fill-opacity:1;fill-rule:nonzero;stroke:none"
         transform="matrix(1.3333333,0,0,-1.3333333,6815.4111,310.94392)"
         clip-path="url(#clipPath91-9)" />
      <path
         id="path92"
         d="m 0,0 h 19.572 l -5.129,15.175 c -0.278,0.768 -0.611,1.727 -0.994,2.878 -0.385,1.152 -0.769,2.372 -1.152,3.664 -0.383,1.29 -0.749,2.598 -1.098,3.924 -0.349,1.325 -0.699,2.476 -1.046,3.454 H 9.419 C 9.14,27.77 8.739,26.269 8.217,24.595 7.693,22.921 7.169,21.246 6.647,19.572 6.123,17.896 5.653,16.431 5.232,15.175 Z m -28.048,-26.479 27.002,71.902 h 22.502 l 27.002,-71.902 h -19.99 l -4.292,12.455 H -4.5 l -4.291,-12.455 z"
         style="fill:#c1272d;fill-opacity:1;fill-rule:nonzero;stroke:none"
         transform="matrix(1.3333333,0,0,-1.3333333,6905.0979,339.16339)"
         clip-path="url(#clipPath93-5)" />
      <path
         id="path94"
         d="m 0,0 h 11.093 c 2.932,0 5.478,0.419 7.641,1.256 2.162,0.837 3.976,2.057 5.444,3.663 1.464,1.605 2.546,3.593 3.244,5.966 0.695,2.371 1.044,5.092 1.044,8.164 v 4.395 c 0,3.14 -0.349,5.896 -1.044,8.269 -0.698,2.37 -1.78,4.359 -3.244,5.965 -1.468,1.605 -3.282,2.825 -5.444,3.663 -2.163,0.838 -4.709,1.256 -7.641,1.256 L 0,42.597 Z M -18.734,-14.652 V 57.25 h 30.039 c 7.811,0 14.424,-1.293 19.832,-3.874 5.407,-2.581 9.524,-6.506 12.349,-11.774 2.828,-5.268 4.238,-12.019 4.238,-20.251 0,-8.164 -1.41,-14.914 -4.238,-20.252 -2.825,-5.337 -6.942,-9.298 -12.349,-11.879 -5.408,-2.582 -12.021,-3.872 -19.832,-3.872 z"
         style="fill:#c1272d;fill-opacity:1;fill-rule:nonzero;stroke:none"
         transform="matrix(1.3333333,0,0,-1.3333333,7006.1276,354.93272)"
         clip-path="url(#clipPath95-3)" />
      <g
         opacity="0.199997"
         id="g97"
         clip-path="url(#clipPath98-7)"
         transform="translate(465.96084,-302.59608)">
        <path
           d="m 0,0 h 11.093 c 2.932,0 5.478,0.419 7.641,1.256 2.162,0.837 3.976,2.057 5.444,3.663 1.464,1.605 2.546,3.593 3.244,5.966 0.695,2.371 1.044,5.092 1.044,8.164 v 4.395 c 0,3.14 -0.349,5.896 -1.044,8.269 -0.698,2.37 -1.78,4.359 -3.244,5.965 -1.468,1.605 -3.282,2.825 -5.444,3.663 -2.163,0.838 -4.709,1.256 -7.641,1.256 L 0,42.597 Z M -18.734,-14.652 V 57.25 h 30.039 c 7.811,0 14.424,-1.293 19.832,-3.874 5.407,-2.581 9.524,-6.506 12.349,-11.774 2.828,-5.268 4.238,-12.019 4.238,-20.251 0,-8.164 -1.41,-14.914 -4.238,-20.252 -2.825,-5.337 -6.942,-9.298 -12.349,-11.879 -5.408,-2.582 -12.021,-3.872 -19.832,-3.872 z"
           style="fill:#000000;fill-opacity:1;fill-rule:nonzero;stroke:none"
           transform="matrix(1.3333333,0,0,-1.3333333,6640.4125,657.5288)"
           clip-path="url(#clipPath96-3)"
           id="path97" />
      </g>
      <path
         id="path99"
         d="m 0,0 v 71.902 h 18.734 v -27.63 h 29.2 v 27.63 H 66.67 V 0 H 47.934 v 28.99 h -29.2 V 0 Z"
         style="fill:#c1272d;fill-opacity:1;fill-rule:nonzero;stroke:none"
         transform="matrix(1.3333333,0,0,-1.3333333,6868.6761,490.95472)"
         clip-path="url(#clipPath100-5)" />
      <path
         id="path101"
         d="M 0,0 V 71.902 H 59.343 V 57.249 H 18.734 V 43.748 h 35.48 V 29.409 H 18.734 V 14.652 H 60.075 V 0 Z"
         style="fill:#c1272d;fill-opacity:1;fill-rule:nonzero;stroke:none"
         transform="matrix(1.3333333,0,0,-1.3333333,6969.0417,490.95472)"
         clip-path="url(#clipPath102-4)" />
      <path
         id="path103"
         d="m 0,0 h 19.362 c 2.58,0 4.658,0.854 6.226,2.564 1.57,1.71 2.356,3.994 2.356,6.856 0,1.884 -0.351,3.487 -1.048,4.814 -0.697,1.325 -1.674,2.355 -2.93,3.087 -1.256,0.734 -2.791,1.1 -4.604,1.1 L 0,18.421 Z m -18.736,-39.247 v 71.902 h 41.76 c 5.303,0 9.735,-0.995 13.293,-2.983 3.558,-1.989 6.226,-4.71 8.007,-8.164 1.778,-3.453 2.668,-7.31 2.668,-11.565 0,-4.604 -1.065,-8.705 -3.192,-12.297 -2.13,-3.595 -5.112,-6.402 -8.949,-8.426 L 49.294,-39.247 H 28.362 L 16.431,-13.919 H 0 v -25.328 z"
         style="fill:#c1272d;fill-opacity:1;fill-rule:nonzero;stroke:none"
         transform="matrix(1.3333333,0,0,-1.3333333,7085.5952,438.62499)"
         clip-path="url(#clipPath104-9)" />
      <path
         id="path105"
         d="M 0,0 V 71.902 H 59.343 V 57.249 H 18.734 V 43.748 H 54.215 V 29.409 H 18.734 V 14.652 H 60.075 V 0 Z"
         style="fill:#c1272d;fill-opacity:1;fill-rule:nonzero;stroke:none"
         transform="matrix(1.3333333,0,0,-1.3333333,7162.7933,490.95472)"
         clip-path="url(#clipPath106-2)" />
      <path
         id="path107"
         d="M 0,0 C -1.321,1.296 -1.982,3.175 -1.982,5.637 V 6.608 H 1.712 V 5.442 c 0,-1.399 0.336,-2.455 1.011,-3.167 0.672,-0.714 1.645,-1.07 2.914,-1.07 1.297,0 2.281,0.408 2.954,1.225 0.675,0.816 1.011,2.028 1.011,3.635 v 19.126 h 3.693 V 6.259 C 13.295,3.537 12.635,1.49 11.314,0.117 9.991,-1.258 8.1,-1.943 5.637,-1.943 3.202,-1.943 1.323,-1.296 0,0"
         style="fill:#c1272d;fill-opacity:1;fill-rule:nonzero;stroke:none"
         transform="matrix(1.3333333,0,0,-1.3333333,6864.4049,545.72259)"
         clip-path="url(#clipPath108-2)" />
      <path
         id="path109"
         d="M 0,0 C -1.102,1.101 -1.653,2.87 -1.653,5.306 V 19.262 H 1.768 V 5.539 c 0,-1.632 0.363,-2.767 1.09,-3.401 0.725,-0.636 1.774,-0.953 3.147,-0.953 0.985,0 1.893,0.24 2.723,0.719 0.828,0.479 1.49,1.173 1.982,2.08 0.491,0.908 0.739,1.97 0.739,3.188 v 12.09 H 14.87 V -1.186 h -2.606 l -0.388,2.76 H 11.604 C 10.101,-0.578 7.808,-1.652 4.722,-1.652 2.676,-1.652 1.102,-1.103 0,0"
         style="fill:#c1272d;fill-opacity:1;fill-rule:nonzero;stroke:none"
         transform="matrix(1.3333333,0,0,-1.3333333,6891.6964,546.11059)"
         clip-path="url(#clipPath110-8)" />
      <path
         id="path111"
         d="m 0,0 c -1.259,0.557 -2.185,1.289 -2.781,2.196 -0.596,0.907 -0.894,1.892 -0.894,2.954 0,0.312 0.006,0.526 0.02,0.642 0.012,0.117 0.02,0.188 0.02,0.214 h 3.381 V 5.618 c 0,-1.219 0.48,-2.133 1.438,-2.741 0.959,-0.609 2.203,-0.915 3.734,-0.915 1.321,0 2.414,0.266 3.284,0.798 0.868,0.531 1.301,1.276 1.301,2.235 0,0.751 -0.245,1.367 -0.737,1.847 C 8.273,7.321 7.665,7.697 6.938,7.969 6.213,8.242 5.228,8.533 3.983,8.844 2.481,9.232 1.257,9.621 0.31,10.01 c -0.946,0.388 -1.75,0.965 -2.41,1.73 -0.661,0.764 -0.991,1.756 -0.991,2.974 0,1.788 0.731,3.207 2.197,4.256 1.464,1.051 3.44,1.575 5.929,1.575 1.554,0 2.902,-0.253 4.041,-0.758 1.14,-0.506 2.002,-1.179 2.586,-2.021 0.582,-0.843 0.874,-1.782 0.874,-2.818 L 12.498,14.209 H 9.155 v 0.349 c 0,0.907 -0.357,1.658 -1.069,2.256 -0.713,0.596 -1.861,0.894 -3.442,0.894 -1.555,0 -2.642,-0.279 -3.264,-0.836 -0.623,-0.558 -0.933,-1.199 -0.933,-1.924 0,-0.597 0.22,-1.089 0.661,-1.478 0.439,-0.389 0.984,-0.7 1.633,-0.933 0.646,-0.233 1.555,-0.492 2.721,-0.777 1.607,-0.415 2.916,-0.824 3.927,-1.225 1.008,-0.402 1.87,-1.011 2.583,-1.827 0.713,-0.817 1.07,-1.899 1.07,-3.246 0,-2.1 -0.758,-3.674 -2.274,-4.724 C 9.252,-0.311 7.236,-0.836 4.722,-0.836 2.831,-0.836 1.257,-0.557 0,0"
         style="fill:#c1272d;fill-opacity:1;fill-rule:nonzero;stroke:none"
         transform="matrix(1.3333333,0,0,-1.3333333,6921.5012,547.19939)"
         clip-path="url(#clipPath112-9)" />
      <path
         id="path113"
         d="m 0,0 c -0.648,0.829 -0.973,1.853 -0.973,3.071 v 13.722 h -2.489 v 2.839 h 2.528 l 0.739,5.676 h 2.644 v -5.676 h 3.46 V 16.793 H 2.449 V 3.382 c 0,-1.218 0.57,-1.827 1.71,-1.827 h 1.75 V -0.7 C 5.57,-0.856 5.131,-0.985 4.586,-1.088 4.042,-1.192 3.536,-1.245 3.071,-1.245 1.672,-1.245 0.646,-0.83 0,0"
         style="fill:#c1272d;fill-opacity:1;fill-rule:nonzero;stroke:none"
         transform="matrix(1.3333333,0,0,-1.3333333,6946.4593,546.60339)"
         clip-path="url(#clipPath114-4)" />
      <path
         id="path115"
         d="m 0,0 c 0.908,0.414 1.645,1.03 2.217,1.847 0.57,0.815 0.854,1.807 0.854,2.973 v 1.477 c -3.343,0 -5.85,-0.266 -7.522,-0.796 -1.671,-0.532 -2.507,-1.536 -2.507,-3.013 0,-1.115 0.343,-1.912 1.029,-2.391 0.687,-0.48 1.706,-0.719 3.053,-0.719 1.011,0 1.97,0.207 2.876,0.622 m -8.474,-2.216 c -1.374,0.829 -2.06,2.333 -2.06,4.51 0,2.617 1.166,4.412 3.498,5.384 2.334,0.971 5.701,1.458 10.107,1.458 v 2.254 c 0,1.192 -0.336,2.106 -1.011,2.741 -0.672,0.634 -1.891,0.953 -3.653,0.953 -1.659,0 -2.846,-0.312 -3.556,-0.934 -0.715,-0.622 -1.07,-1.386 -1.07,-2.294 V 11.39 h -3.304 c -0.027,0.155 -0.039,0.44 -0.039,0.855 0,1.815 0.751,3.214 2.254,4.199 1.502,0.985 3.512,1.477 6.025,1.477 2.54,0 4.471,-0.532 5.794,-1.594 1.321,-1.063 1.982,-2.565 1.982,-4.509 V 0.738 c 0,-0.466 0.128,-0.81 0.388,-1.03 0.26,-0.221 0.584,-0.33 0.973,-0.33 h 1.555 v -2.217 c -0.675,-0.31 -1.555,-0.466 -2.645,-0.466 -0.88,0 -1.619,0.266 -2.215,0.798 -0.596,0.53 -0.999,1.236 -1.206,2.118 H 3.071 C 2.372,-1.348 1.42,-2.099 0.213,-2.644 -0.991,-3.188 -2.32,-3.46 -3.77,-3.46 c -1.762,0 -3.331,0.415 -4.704,1.244"
         style="fill:#c1272d;fill-opacity:1;fill-rule:nonzero;stroke:none"
         transform="matrix(1.3333333,0,0,-1.3333333,6985.6432,543.70072)"
         clip-path="url(#clipPath116-6)" />
      <path
         id="path117"
         d="M 0,0 C 0.842,1.296 1.263,3.214 1.263,5.754 V 5.91 c 0,2.59 -0.427,4.548 -1.283,5.87 -0.856,1.321 -2.191,1.983 -4.004,1.983 -1.297,0 -2.34,-0.253 -3.129,-0.759 -0.792,-0.505 -1.368,-1.328 -1.73,-2.469 C -9.248,9.395 -9.429,7.853 -9.429,5.91 V 5.754 c 0,-1.919 0.181,-3.434 0.546,-4.549 0.362,-1.114 0.932,-1.918 1.71,-2.409 0.777,-0.494 1.826,-0.739 3.149,-0.739 1.839,0 3.18,0.647 4.024,1.943 m -10.867,-2.177 c -1.399,1.737 -2.098,4.432 -2.098,8.087 0,3.576 0.693,6.252 2.078,8.027 1.388,1.775 3.287,2.663 5.695,2.663 1.452,0 2.683,-0.22 3.694,-0.66 1.011,-0.442 1.852,-1.154 2.527,-2.139 h 0.234 v 9.991 H 4.684 V -4.315 H 2.119 L 1.69,-1.555 H 1.456 c -0.673,-1.063 -1.561,-1.866 -2.662,-2.41 -1.102,-0.544 -2.326,-0.816 -3.674,-0.816 -2.591,0 -4.587,0.868 -5.987,2.604"
         style="fill:#c1272d;fill-opacity:1;fill-rule:nonzero;stroke:none"
         transform="matrix(1.3333333,0,0,-1.3333333,7017.6525,541.93925)"
         clip-path="url(#clipPath118-0)" />
      <path
         id="path119"
         d="M 0,0 C 0.842,1.296 1.263,3.214 1.263,5.754 V 5.91 c 0,2.59 -0.427,4.548 -1.283,5.87 -0.856,1.321 -2.191,1.983 -4.004,1.983 -1.297,0 -2.34,-0.253 -3.129,-0.759 -0.792,-0.505 -1.368,-1.328 -1.73,-2.469 C -9.248,9.395 -9.429,7.853 -9.429,5.91 V 5.754 c 0,-1.919 0.181,-3.434 0.546,-4.549 0.362,-1.114 0.932,-1.918 1.71,-2.409 0.777,-0.494 1.826,-0.739 3.149,-0.739 1.839,0 3.18,0.647 4.024,1.943 m -10.867,-2.177 c -1.399,1.737 -2.098,4.432 -2.098,8.087 0,3.576 0.693,6.252 2.078,8.027 1.388,1.775 3.287,2.663 5.695,2.663 1.452,0 2.683,-0.22 3.694,-0.66 1.011,-0.442 1.852,-1.154 2.527,-2.139 h 0.234 v 9.991 H 4.684 V -4.315 H 2.119 L 1.69,-1.555 H 1.456 c -0.673,-1.063 -1.561,-1.866 -2.662,-2.41 -1.102,-0.544 -2.326,-0.816 -3.674,-0.816 -2.591,0 -4.587,0.868 -5.987,2.604"
         style="fill:#c1272d;fill-opacity:1;fill-rule:nonzero;stroke:none"
         transform="matrix(1.3333333,0,0,-1.3333333,7046.4719,541.93925)"
         clip-path="url(#clipPath120-9)" />
      <path
         id="path121"
         d="m 0,0 v 2.216 h 1.361 c 2.644,0 4.38,1.517 5.21,4.548 l -7.892,20.449 h 3.615 l 3.81,-10.224 c 0.362,-0.96 0.783,-2.158 1.263,-3.596 0.479,-1.439 0.797,-2.378 0.952,-2.818 h 0.195 c 0.129,0.44 0.369,1.268 0.719,2.487 0.351,1.218 0.746,2.527 1.187,3.927 l 3.264,10.224 h 3.421 L 10.379,7.814 C 9.473,5.223 8.442,3.221 7.29,1.807 6.136,0.396 4.614,-0.311 2.723,-0.311 1.581,-0.311 0.675,-0.206 0,0"
         style="fill:#c1272d;fill-opacity:1;fill-rule:nonzero;stroke:none"
         transform="matrix(1.3333333,0,0,-1.3333333,7073.0331,556.71152)"
         clip-path="url(#clipPath122-4)" />
      <path
         id="path123"
         d="m 0,0 c 0.932,1.205 1.4,3.169 1.4,5.889 v 0.312 c 0,2.721 -0.468,4.685 -1.4,5.889 -0.934,1.205 -2.437,1.808 -4.509,1.808 -2.074,0 -3.577,-0.603 -4.511,-1.808 -0.932,-1.204 -1.4,-3.168 -1.4,-5.889 V 5.889 c 0,-2.72 0.468,-4.684 1.4,-5.889 0.934,-1.204 2.437,-1.807 4.511,-1.807 2.072,0 3.575,0.603 4.509,1.807 m -11.586,-2.021 c -1.581,1.749 -2.37,4.438 -2.37,8.067 0,3.627 0.789,6.317 2.37,8.066 1.581,1.749 3.939,2.624 7.077,2.624 3.134,0 5.494,-0.875 7.075,-2.624 1.58,-1.749 2.37,-4.439 2.37,-8.066 0,-3.629 -0.79,-6.318 -2.37,-8.067 -1.581,-1.75 -3.941,-2.624 -7.075,-2.624 -3.138,0 -5.496,0.874 -7.077,2.624"
         style="fill:#c1272d;fill-opacity:1;fill-rule:nonzero;stroke:none"
         transform="matrix(1.3333333,0,0,-1.3333333,7116.9373,542.12045)"
         clip-path="url(#clipPath124-6)" />
      <path
         id="path125"
         d="M 0,0 C -1.102,1.101 -1.653,2.87 -1.653,5.306 V 19.262 H 1.768 V 5.539 c 0,-1.632 0.363,-2.767 1.09,-3.401 0.725,-0.636 1.774,-0.953 3.147,-0.953 0.985,0 1.893,0.24 2.723,0.719 0.828,0.479 1.49,1.173 1.982,2.08 0.491,0.908 0.739,1.97 0.739,3.188 v 12.09 H 14.87 V -1.186 h -2.606 l -0.388,2.76 H 11.604 C 10.101,-0.578 7.808,-1.652 4.723,-1.652 2.676,-1.652 1.102,-1.103 0,0"
         style="fill:#c1272d;fill-opacity:1;fill-rule:nonzero;stroke:none"
         transform="matrix(1.3333333,0,0,-1.3333333,7130.8541,546.11059)"
         clip-path="url(#clipPath126-2)" />
      <path
         id="path127"
         d="m 0,0 h 2.606 l 0.389,-3.071 h 0.233 c 0.389,1.011 0.971,1.853 1.748,2.526 0.778,0.674 1.803,1.011 3.071,1.011 0.441,0 0.836,-0.045 1.186,-0.136 C 9.584,0.239 9.797,0.181 9.876,0.155 v -3.304 h -1.44 c -1.452,0 -2.65,-0.422 -3.595,-1.263 C 3.895,-5.255 3.422,-6.57 3.422,-8.358 v -12.09 H 0 Z"
         style="fill:#c1272d;fill-opacity:1;fill-rule:nonzero;stroke:none"
         transform="matrix(1.3333333,0,0,-1.3333333,7157.6248,520.42752)"
         clip-path="url(#clipPath128-8)" />
      <path
         id="path129"
         d="M 0,0 -3.111,8.319 -4.9,13.139 H -5.093 L -6.843,8.397 -9.952,0 Z m -7.232,16.327 h 4.705 L 7.814,-10.341 H 3.887 l -2.683,7.114 h -12.363 l -2.604,-7.114 h -3.81 z"
         style="fill:#c1272d;fill-opacity:1;fill-rule:nonzero;stroke:none"
         transform="matrix(1.3333333,0,0,-1.3333333,7206.7652,533.90405)"
         clip-path="url(#clipPath130-1)" />
      <path
         id="path131"
         d="M 0,0 C 0.842,1.296 1.263,3.214 1.263,5.754 V 5.91 c 0,2.59 -0.427,4.548 -1.283,5.87 -0.856,1.321 -2.191,1.983 -4.004,1.983 -1.297,0 -2.34,-0.253 -3.129,-0.759 -0.792,-0.505 -1.368,-1.328 -1.73,-2.469 C -9.248,9.395 -9.429,7.853 -9.429,5.91 V 5.754 c 0,-1.919 0.181,-3.434 0.546,-4.549 0.362,-1.114 0.932,-1.918 1.71,-2.409 0.777,-0.494 1.826,-0.739 3.149,-0.739 1.839,0 3.18,0.647 4.024,1.943 m -10.867,-2.177 c -1.399,1.737 -2.098,4.432 -2.098,8.087 0,3.576 0.693,6.252 2.078,8.027 1.388,1.775 3.287,2.663 5.695,2.663 1.452,0 2.683,-0.22 3.694,-0.66 1.011,-0.442 1.852,-1.154 2.527,-2.139 h 0.234 v 9.991 H 4.684 V -4.315 H 2.119 L 1.69,-1.555 H 1.456 c -0.673,-1.063 -1.561,-1.866 -2.662,-2.41 -1.102,-0.544 -2.326,-0.816 -3.674,-0.816 -2.591,0 -4.587,0.868 -5.987,2.604"
         style="fill:#c1272d;fill-opacity:1;fill-rule:nonzero;stroke:none"
         transform="matrix(1.3333333,0,0,-1.3333333,7236.6479,541.93925)"
         clip-path="url(#clipPath132-4)" />
    </g>
  </g>
</svg>
